<?xml version="1.0" standalone="no"?>
<!DOCTYPE svg PUBLIC "-//W3C//DTD SVG 20010904//EN"
 "http://www.w3.org/TR/2001/REC-SVG-20010904/DTD/svg10.dtd">
<svg version="1.0" xmlns="http://www.w3.org/2000/svg"
 width="500.000000pt" height="500.000000pt" viewBox="0 0 500.000000 500.000000"
 preserveAspectRatio="xMidYMid meet">

<g transform="translate(0.000000,500.000000) scale(0.100000,-0.100000)"
fill="#000000" stroke="none">
<path d="M0 2500 l0 -2500 2500 0 2500 0 0 2500 0 2500 -2500 0 -2500 0 0
-2500z m3130 835 l625 -625 5 47 5 48 53 3 52 3 0 -109 c0 -107 0 -109 30
-137 36 -35 36 -33 10 105 -28 149 -30 142 33 138 l52 -3 16 -90 15 -90 7 48
c4 26 10 67 13 92 l6 45 54 0 c30 0 54 -3 54 -7 0 -5 -10 -67 -22 -138 l-22
-130 27 -135 c15 -74 27 -141 27 -147 0 -9 -18 -13 -55 -13 -53 0 -54 1 -60
33 -3 17 -11 64 -18 102 l-13 70 -13 -75 c-7 -41 -14 -87 -17 -102 l-6 -28
-141 0 -142 0 -602 -602 -603 -603 -604 604 -605 605 -55 -3 -56 -2 0 59 c0
45 -4 63 -19 76 -18 16 -19 16 -24 -6 -3 -13 -9 -47 -13 -75 l-7 -53 -52 0
-52 0 -30 173 -31 172 -1 -172 -1 -173 -55 0 -55 0 2 282 3 283 85 0 85 0 21
-145 c24 -165 32 -165 53 0 21 166 9 150 107 150 l84 0 0 -32 c0 -34 15 -29
22 7 2 11 12 21 24 23 11 2 277 260 594 577 316 316 577 575 580 575 3 0 286
-281 630 -625z"/>
<path d="M1930 3374 l-565 -565 50 1 c28 1 65 1 83 1 l32 -1 0 -55 0 -55 -55
0 -55 0 0 -54 0 -55 53 -3 52 -3 3 -52 3 -53 -55 0 -56 0 0 -65 0 -65 60 0 60
0 0 -55 0 -54 -110 -3 -110 -3 590 -590 590 -590 590 590 590 590 -75 3 -75 3
0 227 0 227 -60 -3 -60 -4 0 -39 0 -39 55 0 55 0 0 -54 0 -55 -52 -3 -53 -3
-3 -127 -3 -128 -54 0 -55 0 0 284 0 285 114 3 c68 2 112 -1 108 -6 -3 -5 2
-6 12 -3 10 4 36 7 59 7 l42 0 -565 565 c-311 311 -567 565 -570 565 -3 0
-259 -255 -570 -566z m-270 -799 l0 -235 60 0 60 0 0 235 0 235 55 0 54 0 3
-102 c3 -102 3 -103 28 -103 25 0 25 1 28 103 l3 103 52 -3 52 -3 3 -282 2
-283 -55 0 -54 0 -3 128 -3 127 -25 0 -25 0 -3 -127 -3 -128 -169 0 -170 0 0
285 0 285 55 0 55 0 0 -235z m625 221 c62 -26 70 -56 70 -271 0 -207 -7 -236
-61 -271 -33 -22 -125 -22 -158 0 -55 35 -61 64 -61 271 0 165 2 194 18 223
31 57 118 78 192 48z m294 5 c13 -3 33 -19 44 -34 38 -50 32 -205 -9 -221 -12
-5 -11 -9 6 -26 18 -18 20 -33 20 -150 l0 -130 -55 0 -55 0 0 118 c0 112 -7
142 -32 142 -4 0 -8 -58 -8 -130 l0 -130 -60 0 -60 0 0 278 c0 153 3 282 7
285 8 9 170 7 202 -2z m301 -45 l0 -55 -52 -3 -53 -3 -3 -52 -3 -53 55 0 56 0
0 -55 0 -55 -55 0 -55 0 0 -65 0 -65 60 0 60 0 0 50 0 50 54 0 55 0 3 -52 c3
-45 6 -53 23 -53 16 0 21 8 23 42 3 41 0 46 -68 117 -77 82 -90 107 -90 168 0
56 25 103 65 122 40 19 101 20 135 3 37 -19 70 -74 70 -118 l0 -39 -55 0 c-51
0 -55 2 -55 23 0 28 -17 47 -36 40 -30 -11 -12 -48 60 -123 87 -91 104 -137
86 -229 -12 -64 -39 -97 -90 -111 -71 -19 -141 8 -165 63 l-14 32 -1 -47 0
-48 -115 0 -115 0 0 285 0 285 110 0 110 0 0 -54z"/>
<path d="M2202 2701 c-9 -6 -12 -51 -10 -182 3 -166 4 -174 23 -174 19 0 20 8
23 171 2 131 -1 174 -11 182 -7 6 -18 7 -25 3z"/>
<path d="M2490 2650 c0 -43 3 -50 20 -50 23 0 36 37 26 75 -4 16 -13 25 -26
25 -17 0 -20 -7 -20 -50z"/>
<path d="M3650 2568 l0 -225 55 -2 55 -1 0 173 0 173 -55 54 -55 54 0 -226z"/>
<path d="M1287 2734 c-11 -11 -8 -364 3 -364 6 0 10 68 10 185 0 102 -1 185
-3 185 -2 0 -6 -3 -10 -6z"/>
<path d="M1168 2583 c-2 -36 -6 -68 -16 -125 -7 -41 -6 -50 10 -64 17 -17 18
-13 18 99 0 65 -2 117 -5 117 -3 0 -6 -12 -7 -27z"/>
<path d="M3870 2500 l0 -75 24 25 c39 40 40 62 6 95 l-30 29 0 -74z"/>
<path d="M3886 2421 c-13 -15 -16 -34 -14 -92 l3 -74 18 88 c10 49 17 91 14
93 -2 2 -11 -4 -21 -15z"/>
<path d="M1280 2316 c0 -25 5 -48 10 -51 6 -4 10 13 10 44 0 28 -4 51 -10 51
-5 0 -10 -20 -10 -44z"/>
</g>
</svg>
